<svg xmlns="http://www.w3.org/2000/svg" width="1600" height="900" viewBox="0 0 1600 900">
  <rect width="1600" height="900" fill="#fbfaf8"/>
  <text x="72" y="92" font-family="Georgia, serif" font-size="48" fill="#171717">Transformation roadmap</text>
  <text x="72" y="132" font-family="Arial, sans-serif" font-size="19" fill="#67615c">A phased path from foundation to scaled impact</text>
  <line x1="126" y1="470" x2="1474" y2="470" stroke="#d94f14" stroke-width="9"/>
  <g font-family="Arial, sans-serif">
    <circle cx="210" cy="470" r="27" fill="#fbfaf8" stroke="#d94f14" stroke-width="7"/>
    <line x1="210" y1="443" x2="210" y2="310" stroke="#d94f14" stroke-width="3"/>
    <rect x="104" y="205" width="212" height="105" rx="5" fill="#ffffff" stroke="#ddd8d3"/>
    <text x="130" y="242" font-size="17" font-weight="700" fill="#171717">01  Align</text>
    <rect x="130" y="264" width="145" height="9" rx="4" fill="#d7d2cd"/>
    <rect x="130" y="284" width="116" height="9" rx="4" fill="#d7d2cd"/>
    <circle cx="600" cy="470" r="27" fill="#fbfaf8" stroke="#d94f14" stroke-width="7"/>
    <line x1="600" y1="497" x2="600" y2="632" stroke="#d94f14" stroke-width="3"/>
    <rect x="494" y="632" width="212" height="105" rx="5" fill="#fff0e7"/>
    <text x="520" y="669" font-size="17" font-weight="700" fill="#171717">02  Build</text>
    <rect x="520" y="691" width="145" height="9" rx="4" fill="#c9b8ac"/>
    <rect x="520" y="711" width="116" height="9" rx="4" fill="#c9b8ac"/>
    <circle cx="990" cy="470" r="27" fill="#fbfaf8" stroke="#d94f14" stroke-width="7"/>
    <line x1="990" y1="443" x2="990" y2="310" stroke="#d94f14" stroke-width="3"/>
    <rect x="884" y="205" width="212" height="105" rx="5" fill="#ffffff" stroke="#ddd8d3"/>
    <text x="910" y="242" font-size="17" font-weight="700" fill="#171717">03  Launch</text>
    <rect x="910" y="264" width="145" height="9" rx="4" fill="#d7d2cd"/>
    <rect x="910" y="284" width="116" height="9" rx="4" fill="#d7d2cd"/>
    <circle cx="1380" cy="470" r="27" fill="#fbfaf8" stroke="#d94f14" stroke-width="7"/>
    <line x1="1380" y1="497" x2="1380" y2="632" stroke="#d94f14" stroke-width="3"/>
    <rect x="1274" y="632" width="212" height="105" rx="5" fill="#fff0e7"/>
    <text x="1300" y="669" font-size="17" font-weight="700" fill="#171717">04  Scale</text>
    <rect x="1300" y="691" width="145" height="9" rx="4" fill="#c9b8ac"/>
    <rect x="1300" y="711" width="116" height="9" rx="4" fill="#c9b8ac"/>
  </g>
</svg>
